<svg xmlns="http://www.w3.org/2000/svg" xmlns:xlink="http://www.w3.org/1999/xlink" width="38.667" height="32" viewBox="0 0 38.667 32"><defs><linearGradient id="a" x1="0.5" x2="0.5" y2="1" gradientUnits="objectBoundingBox"><stop offset="0" stop-color="#b2ff9e"/><stop offset="1" stop-color="#1dd3b0"/></linearGradient></defs><path d="M22.561,33a16.133,16.133,0,0,1-4.3-.6A14.18,14.18,0,0,1,.006,18.919a.644.644,0,0,1,1.289,0A12.869,12.869,0,0,0,15.983,31.59,16.1,16.1,0,1,1,22.561,33Zm0-30.72A14.72,14.72,0,1,0,37.384,17,14.788,14.788,0,0,0,22.561,2.279Zm5.727,14.04h-.012a4.612,4.612,0,0,1-.559.038,4.453,4.453,0,0,1-4.473-5.034v-.013a4.507,4.507,0,1,1,5.042,5.008Zm-3.739-3.905a3.155,3.155,0,0,0,.159.579c.025.068.05.137.081.2a3.14,3.14,0,0,0,.189.345c.032.052.06.108.1.158a3.2,3.2,0,0,0,.365.44l0,0a3.286,3.286,0,0,0,.442.362c.052.036.108.064.162.1a3.107,3.107,0,0,0,.343.186c.068.031.138.056.208.081a3.141,3.141,0,0,0,.583.157c.044.008.091.008.136.013a5.183,5.183,0,0,0-2.781-2.762c.006.046.006.093.014.138Zm3.168-3.735a3.213,3.213,0,0,0-3.071,2.283,6.453,6.453,0,0,1,3.995,3.967,3.189,3.189,0,0,0-.923-6.25Zm0,8.96a4.48,4.48,0,1,1-4.471,5.048v-.014a4.453,4.453,0,0,1,4.473-5.034Zm-.768,1.382a3.245,3.245,0,0,0-.352.109c-.07.026-.14.051-.208.082a3.285,3.285,0,0,0-.344.185c-.053.033-.11.061-.162.1a3.179,3.179,0,0,0-.441.361l-.006.005a3.274,3.274,0,0,0-.365.439c-.035.051-.063.106-.1.159a3.237,3.237,0,0,0-.188.344c-.03.067-.055.135-.081.2a3.272,3.272,0,0,0-.158.579c-.008.045-.008.092-.014.138a5.181,5.181,0,0,0,2.781-2.762c-.045.006-.092.006-.136.014q-.116.019-.231.047Zm.768,6.3a3.188,3.188,0,0,0,.923-6.25,6.452,6.452,0,0,1-3.995,3.967,3.213,3.213,0,0,0,3.071,2.283Zm-5.839-2.636v0a4.507,4.507,0,1,1-5.042-5.007h.012a4.454,4.454,0,0,1,5.032,5Zm-5.4-3.613a3.194,3.194,0,1,0,3.995,3.967A6.452,6.452,0,0,1,16.482,19.069Zm4.091,2.513a3.213,3.213,0,0,0-.159-.58c-.025-.067-.05-.134-.079-.2a3.126,3.126,0,0,0-.191-.35c-.032-.051-.059-.1-.093-.154a3.238,3.238,0,0,0-.812-.806c-.052-.036-.108-.064-.162-.1a3.059,3.059,0,0,0-.344-.186c-.068-.031-.138-.056-.208-.082a3.281,3.281,0,0,0-.583-.157c-.044-.007-.091-.008-.136-.013a5.182,5.182,0,0,0,2.781,2.762C20.581,21.675,20.581,21.628,20.573,21.583Zm-3.167-5.224a4.6,4.6,0,0,1-.559-.038h-.012a4.48,4.48,0,1,1,5.042-5.007v.012a4.45,4.45,0,0,1-4.472,5.036Zm0-7.68a3.189,3.189,0,0,0-.924,6.25,6.453,6.453,0,0,1,3.995-3.967A3.213,3.213,0,0,0,17.406,8.679ZM20.415,13a3.172,3.172,0,0,0,.159-.579c.008-.045.008-.093.014-.139a5.182,5.182,0,0,0-2.781,2.762c.045-.005.092-.006.136-.013a3.035,3.035,0,0,0,.583-.156c.07-.026.141-.051.209-.082a3.28,3.28,0,0,0,.344-.186c.053-.033.11-.061.162-.1a3.251,3.251,0,0,0,.812-.806c.034-.049.061-.1.093-.154a3.061,3.061,0,0,0,.191-.349c.03-.065.054-.132.079-.2Z" transform="translate(-0.006 -0.999)" fill="url(#a)"/></svg>