<svg xmlns="http://www.w3.org/2000/svg" width="284.995" height="64" viewBox="0 0 284.995 64"><g transform="translate(-423.24 -181)"><path d="M14.5,16.032a13.612,13.612,0,0,1-7.552,2.5A7.9,7.9,0,0,1,.608,15.744Q-1.76,12.96-1.76,7.712V-23.136H3.168V-14.3H13.856v3.9H3.168V6.88q0,7.04,4.544,7.04a10.736,10.736,0,0,0,5.312-1.728ZM37.088-15.52a18.042,18.042,0,0,1,8.832,2.144A15.274,15.274,0,0,1,52-7.36a17.65,17.65,0,0,1,2.176,8.8A17.829,17.829,0,0,1,52,10.272a15.432,15.432,0,0,1-6.08,6.08,17.829,17.829,0,0,1-8.832,2.176,17.78,17.78,0,0,1-8.864-2.176A15.55,15.55,0,0,1,22.176,10.3,17.78,17.78,0,0,1,20,1.44a17.65,17.65,0,0,1,2.176-8.8,15.331,15.331,0,0,1,6.048-6.016A17.992,17.992,0,0,1,37.088-15.52Zm0,4.416a12.248,12.248,0,0,0-6.272,1.6,11.124,11.124,0,0,0-4.288,4.48A13.654,13.654,0,0,0,24.992,1.5,13.792,13.792,0,0,0,26.528,8.1a11.124,11.124,0,0,0,4.288,4.48,12.248,12.248,0,0,0,6.272,1.6,12.248,12.248,0,0,0,6.272-1.6A11.124,11.124,0,0,0,47.648,8.1,13.792,13.792,0,0,0,49.185,1.5a13.654,13.654,0,0,0-1.536-6.528,11.062,11.062,0,0,0-4.32-4.48A12.3,12.3,0,0,0,37.088-11.1ZM69.857-7.84A12.6,12.6,0,0,1,74.593-13.5a13.835,13.835,0,0,1,7.36-2.016v4.864A11.687,11.687,0,0,0,73.5-7.744,12.1,12.1,0,0,0,69.857.416v17.92H64.865V-15.328h4.992ZM190.434-20.7a4.389,4.389,0,0,1-3.36-1.408,4.964,4.964,0,0,1-1.312-3.52,4.936,4.936,0,0,1,1.312-3.552,4.439,4.439,0,0,1,3.36-1.376,4.439,4.439,0,0,1,3.36,1.376,4.936,4.936,0,0,1,1.312,3.552,4.964,4.964,0,0,1-1.312,3.52A4.389,4.389,0,0,1,190.434-20.7Zm-29.12,2.944a11.827,11.827,0,0,1,1.7-6.5,10.626,10.626,0,0,1,4.448-3.968,13.652,13.652,0,0,1,5.952-1.312,13.51,13.51,0,0,1,6.464,1.472l-.32,7.168a13.772,13.772,0,0,0-5.5-1.408,4.681,4.681,0,0,0-3.232,1.056,4.113,4.113,0,0,0-1.184,3.232v3.52h8.576v6.08h-8.576V18.336h-8.32Zm24.96,36.1V-15.9h8.32v34.24ZM211.3,7.264a4.3,4.3,0,0,0,.832,2.88,2.888,2.888,0,0,0,2.3.96,8.03,8.03,0,0,0,3.392-1.024l.96,6.976a14.414,14.414,0,0,1-6.464,1.664,8.751,8.751,0,0,1-6.656-2.784q-2.624-2.784-2.624-7.968v-37.12H211.3Zm59.457-23.488q5.824,0,9.152,3.552t3.328,9.632V18.336h-8.384V-.608a7.883,7.883,0,0,0-2.016-5.728,7.267,7.267,0,0,0-5.472-2.08,8.214,8.214,0,0,0-6.3,2.88,10.4,10.4,0,0,0-2.336,6.976v16.9h-8.384V-.608a7.959,7.959,0,0,0-1.984-5.728,7.161,7.161,0,0,0-5.44-2.08,8.283,8.283,0,0,0-6.368,2.88A10.4,10.4,0,0,0,234.21,1.44v16.9h-8.32V-15.9h8.32v6.336q3.392-6.528,12.032-6.656a12.722,12.722,0,0,1,7.52,2.144,11.225,11.225,0,0,1,4.256,6.048Q261.283-16.1,270.755-16.224Z" transform="translate(425 217.96)" fill="#fff"/><path d="M32,64A32,32,0,0,1,9.373,9.373,32,32,0,0,1,54.627,54.627,31.791,31.791,0,0,1,32,64ZM32,6.4A25.6,25.6,0,1,0,57.6,32,25.63,25.63,0,0,0,32,6.4Z" transform="translate(514.057 181)" fill="#03c1ef"/><g transform="translate(539.657 201.8)"><path d="M18.189,9.423,3.1.319A2.045,2.045,0,0,0,0,2.126v18.2a2.055,2.055,0,0,0,3.1,1.807l15.086-9.1a2.12,2.12,0,0,0,0-3.614Z" transform="translate(0 -0.032)" fill="#03c1ef"/></g></g></svg>