<svg xmlns="http://www.w3.org/2000/svg" width="53" height="53.001" viewBox="0 0 53 53.001"><g transform="translate(0 0)"><rect width="53" height="53" transform="translate(0 0)" fill="#141a32"/><path d="M-11722.614-673l-.243-.2a8.252,8.252,0,0,1,1.469-1.042l9.136-4.986a3.733,3.733,0,0,0,1.945-3.273v-3.744a20.355,20.355,0,0,1-3.7-7.667,3.066,3.066,0,0,1-1.418-2.575v-4.1a3.05,3.05,0,0,1,1.024-2.269v-5.924s-1.216-9.218,11.266-9.218,11.267,9.218,11.267,9.218v5.924a3.056,3.056,0,0,1,1.026,2.269v4.1a3.076,3.076,0,0,1-2.181,2.922,22.568,22.568,0,0,1-3.04,6.128c-.339.477-.653.877-.927,1.192v3.838a3.73,3.73,0,0,0,2.063,3.337l9.783,4.891a8.149,8.149,0,0,1,1.612,1.08l-.12.1Z" transform="translate(11729.858 726)" fill="#4f6b95"/></g></svg>